# xmcd
#
# Track frame offsets: 
#        150
#        10471
#        25755
#        50047
#        61512
#        74179
#        88313
#        105905
#        120046
#        133552
#        152290
#
# Disc length: 2150 seconds
#
# Revision: 0
# Processed by: cddbd v1.5.2PL0 Copyright (c) Steve Scherf et al.
# Submitted via: ExactAudioCopy v0.99pb3
#
DISCID=8408640b
DTITLE=J Hansen - Give The Drummer Some
DYEAR=2009
DGENRE=blues
TTITLE0=Firecracker
TTITLE1=I'm Takin' Out My In - Laws
TTITLE2=Wigglin' On the Pole
TTITLE3=Equal Opportunity Lover
TTITLE4=My Little Girl
TTITLE5=She Ain't You
TTITLE6=No Good
TTITLE7=Really Living
TTITLE8=Workin' Man
TTITLE9=The Lord Train
TTITLE10=Mack The Knife
EXTD=
EXTT0=
EXTT1=
EXTT2=
EXTT3=
EXTT4=
EXTT5=
EXTT6=
EXTT7=
EXTT8=
EXTT9=
EXTT10=
PLAYORDER=
